# xmcd
#
# Track frame offsets: 
#        150
#        28879
#        44148
#        65242
#        84199
#        96855
#        109648
#        141905
#        162030
#        173870
#        195476
#        210685
#        225748
#        241180
#        260073
#        276630
#        297472
#        310617
#        326161
#        343413
#
# Disc length: 4726 seconds
#
# Revision: 0
# Processed by: cddbd v1.5.2PL0 Copyright (c) Steve Scherf et al.
# Submitted via: ExactAudioCopy v1.1
#
DISCID=3b127414
DTITLE=Various Artist - Het Allerbeste Uit Radio 1 Classics 1000 Van 2017 - C
DTITLE=D 3
DYEAR=2017
DGENRE=Easy Listening
TTITLE0=Sinéad O'Connor - Troy
TTITLE1=Joy Division - Love Will Tear Us Apart
TTITLE2=Iggy Pop - The Passenger
TTITLE3=Radiohead - Street Spirit (Fade Out)
TTITLE4=Roy Orbison - In Dreams
TTITLE5=James Brown - Sex Machine
TTITLE6=The Velvet Underground - Heroin
TTITLE7=10CC - Dreadlock Holiday
TTITLE8=Dolly Parton - Jolene
TTITLE9=Noir Désir - Le Vent Nous Portera
TTITLE10=Small Faces - Tin Soldier
TTITLE11=Suede - Animal Nitrate
TTITLE12=The Nits - In The Dutch Mountains
TTITLE13=The Cranberries - Zombie
TTITLE14=Suzanne Vega - Marlene On The Wall
TTITLE15=Elliott Smith - Waltz #2 (XO)
TTITLE16=The Jam - Going Underground
TTITLE17=Billie Holiday - Strange Fruit
TTITLE18=Editors - No Sound But The Wind (Live At Rock Werchter 2010)
TTITLE19=John Cale - (I Keep A) Close Watch
EXTD=
EXTT0=
EXTT1=
EXTT2=
EXTT3=
EXTT4=
EXTT5=
EXTT6=
EXTT7=
EXTT8=
EXTT9=
EXTT10=
EXTT11=
EXTT12=
EXTT13=
EXTT14=
EXTT15=
EXTT16=
EXTT17=
EXTT18=
EXTT19=
PLAYORDER=
